<?xml version="1.0" encoding="utf-8"?>
<!-- Generator: Adobe Illustrator 19.1.0, SVG Export Plug-In . SVG Version: 6.00 Build 0)  -->
<svg version="1.1" id="Layer_2" xmlns="http://www.w3.org/2000/svg" xmlns:xlink="http://www.w3.org/1999/xlink" x="0px" y="0px"
	 viewBox="0 35 300 265" style="enable-background:new 0 35 300 265;" xml:space="preserve">
<style type="text/css">
	.st0{fill:none;stroke:#F2E7D3;stroke-width:3.6503;stroke-linecap:round;stroke-miterlimit:10;}
	.st1{fill:none;stroke:#F2E7D3;stroke-width:3.8043;stroke-linecap:round;stroke-miterlimit:10;}
	.st2{fill:none;stroke:#F2E7D3;stroke-width:4.3649;stroke-linecap:round;stroke-miterlimit:10;}
	.st3{fill:#F2E7D3;}
	.st4{fill:none;}
</style>
<path class="st0" d="M148.1,213.6c0.1,2.1,0.3,20.7-17.5,32.1c-17.7,11.3-42.4,8.4-56.8-1.2c-14-9.3-16.2-23.1-16.7-26.6
	c-2.7-18.6,9.8-37.7,31.5-50.1"/>
<path class="st0" d="M212.4,167.7c21.6,12.4,34.2,31.5,31.4,50.1c-0.5,3.5-2.8,17.3-16.7,26.6c-14.4,9.6-39.1,12.6-56.8,1.2
	c-17.8-11.4-17.6-30-17.5-32.1"/>
<g>
	<path class="st1" d="M118.2,77.6c1,41.9-11.1,57.7-22.7,64.2c-20.7,11.8-46.7-2-63.3,12.1c-11.6,9.8-11.4,27.1-9.7,39.5"/>
	<path class="st1" d="M181.8,77.6c-1,41.9,11.1,57.7,22.7,64.2c20.7,11.8,46.7-2,63.3,12.1c11.6,9.8,11.4,27.1,9.7,39.5"/>
</g>
<path class="st0" d="M77.7,248c1,2.3,10,24.4-1.7,40.3c-1.7,2.4-4.4,5.2-8.3,7.7"/>
<path class="st0" d="M222.1,248c-1,2.3-10,24.4,1.7,40.3c1.7,2.4,4.4,5.2,8.3,7.7"/>
<path class="st2" d="M88.1,44.3c11.9,26.2,37.3,42.4,64.3,41c24.7-1.3,46.9-17.1,57.7-41"/>
<path class="st3" d="M97.8,225.4l-13.2,13.2c-0.1,0.1-0.2,0.1-0.3,0.1c-0.1,0-0.1,0-0.2,0c-0.1,0-0.1,0-13.3-13.2
	c-3.4-3.4-3.4-9,0-12.4c1.7-1.7,3.9-2.6,6.2-2.6c2.3,0,4.6,0.9,6.2,2.6c0.4,0.4,0.7,0.8,1,1.3c0.3-0.5,0.7-0.9,1-1.3
	c1.7-1.7,3.9-2.6,6.2-2.6c2.3,0,4.6,0.9,6.2,2.6C101.2,216.4,101.2,221.9,97.8,225.4z"/>
<path class="st3" d="M228.1,225.4l-13.2,13.2c-0.1,0.1-0.2,0.1-0.3,0.1c-0.1,0-0.1,0-0.2,0c-0.1,0-0.1,0-13.3-13.2
	c-3.4-3.4-3.4-9,0-12.4c1.7-1.7,3.9-2.6,6.2-2.6c2.3,0,4.6,0.9,6.2,2.6c0.4,0.4,0.7,0.8,1,1.3c0.3-0.5,0.7-0.9,1-1.3
	c1.7-1.7,3.9-2.6,6.2-2.6c2.3,0,4.6,0.9,6.2,2.6C231.5,216.4,231.5,221.9,228.1,225.4z"/>
<path class="st4" d="M176.8,141c-3.1-3.1-7.3-4.8-11.7-4.8s-8.5,1.7-11.7,4.8c-1,1-1.9,2.2-2.7,3.5c-0.2,0.3-0.5,0.5-0.8,0.5l0,0
	c-0.3,0-0.6-0.2-0.8-0.5c-0.7-1.3-1.6-2.5-2.7-3.5c-3.1-3.1-7.3-4.8-11.7-4.8s-8.5,1.7-11.7,4.8c-6.4,6.4-6.4,16.9,0,23.3
	c0,0,22.6,22.6,26.8,26.8l26.8-26.8C183.2,157.9,183.2,147.5,176.8,141z"/>
</svg>
