<?xml version="1.0" encoding="utf-8"?>
<!-- Generator: Adobe Illustrator 19.1.0, SVG Export Plug-In . SVG Version: 6.00 Build 0)  -->
<svg version="1.1" id="Layer_2" xmlns="http://www.w3.org/2000/svg" xmlns:xlink="http://www.w3.org/1999/xlink" x="0px" y="0px"
	 viewBox="0 0 300 300" enable-background="new 0 0 300 300" xml:space="preserve">
<g>
	<path fill="none" stroke="#F2E7D3" stroke-width="4" stroke-linecap="round" stroke-miterlimit="10" d="M141.7,224.1
		c0.1,3.4,0.4,33.2-23.3,51.4c-23.6,18.1-56.5,13.4-75.7-2c-18.9-15.2-21.9-38.8-22.3-42.6c-6-53.6,55.7-81.7,49.3-132.8
		C67.6,81,58.6,67.9,51.8,59.9"/>
	<circle fill="none" stroke="#F2E7D3" stroke-width="4" stroke-miterlimit="10" cx="85.8" cy="249.9" r="14.4"/>
	<circle fill="#F2E7D3" cx="85.8" cy="249.9" r="6.6"/>
</g>
<g>
	<path fill="none" stroke="#F2E7D3" stroke-width="4" stroke-linecap="round" stroke-miterlimit="10" d="M158.1,224.1
		c-0.1,3.4-0.4,33.2,23.3,51.4c23.6,18.1,56.5,13.4,75.7-2c18.9-15.2,21.9-38.8,22.3-42.6c6-53.6-55.7-81.7-49.3-132.8
		c2.1-17.1,11.1-30.1,17.9-38.2"/>
	<circle fill="none" stroke="#F2E7D3" stroke-width="4" stroke-miterlimit="10" cx="214" cy="249.9" r="14.4"/>
	<circle fill="#F2E7D3" cx="214" cy="249.9" r="6.6"/>
</g>
</svg>
