<?xml version="1.0" encoding="utf-8"?>
<!-- Generator: Adobe Illustrator 19.1.0, SVG Export Plug-In . SVG Version: 6.00 Build 0)  -->
<svg version="1.1" id="Layer_2" xmlns="http://www.w3.org/2000/svg" xmlns:xlink="http://www.w3.org/1999/xlink" x="0px" y="0px" width="150px" height="150px"
	 viewBox="0 0" style="enable-background:new 0 0 150 150;" xml:space="preserve">
<g>
	<path style="fill:#DC6584;stroke:#F2E7D3;stroke-width:2;stroke-linecap:round;stroke-linejoin:round;stroke-miterlimit:10;" d="
		M75.4,29.2c14,0,25,11,28.3,26c0.6-2.8,1.3-5.5,1.3-8.5c0.4-18.1-13.1-34.8-29.6-34.8S45.5,27.4,45.5,46.6c0,3,0.3,5.9,0.9,8.6
		C49.7,40.3,61.5,29.2,75.4,29.2z"/>
	<path style="fill:#DC6584;stroke:#F2E7D3;stroke-width:2;stroke-linecap:round;stroke-linejoin:round;stroke-miterlimit:10;" d="
		M96.5,23.7c-2.2,5.9-5.5,13.7-9.8,22.4c-1.7,3.5-6.3,12.6-14.3,25.5c-6.7,10.8-16.7,25.5-30.5,42.3c5.5,8.1,10.9,16.2,16.4,24.3
		c0,0,26.5-44.3,34.8-59.3C97.5,70.6,117.4,49.3,96.5,23.7z"/>
	<path style="fill:#DC6584;stroke:#F2E7D3;stroke-width:2;stroke-linecap:round;stroke-linejoin:round;stroke-miterlimit:10;" d="
		M54.1,22.8c2.2,5.9,4.8,14.5,9.1,23.3c1.7,3.5,6.3,12.6,14.3,25.5c6.7,10.8,16.7,25.5,30.5,42.3c-5.5,8.1-10.9,16.2-16.4,24.3
		c0,0-26.5-44.3-34.8-59.3C52.5,70.6,33.2,48.4,54.1,22.8z"/>
</g>
</svg>
